<svg xmlns="http://www.w3.org/2000/svg" viewBox="0 0 106.61 89.87"><defs><style>.cls-1{fill:#a2b58f;}.cls-2{fill:#f99052;}.cls-3{fill:#fff;}</style></defs><g id="Capa_2" data-name="Capa 2"><g id="Capa_1-2" data-name="Capa 1"><path class="cls-1" d="M45,0A44.94,44.94,0,1,0,90,44.93,45,45,0,0,0,45,0Zm.26,11.25a15.18,15.18,0,1,1-15.2,15.17A15.24,15.24,0,0,1,45.26,11.25ZM69.41,69.63c-.36,3.34-3.46,5.65-7,5.67-5.73,0-11.46,0-17.18,0s-11.41,0-17.11,0a6.78,6.78,0,0,1-6.92-5.41,23.45,23.45,0,0,1-.26-5.3,15.11,15.11,0,0,1,6.57-12.77A14.39,14.39,0,0,1,35.88,49Q45.11,49,54.3,49A15,15,0,0,1,69.24,61.2,30.12,30.12,0,0,1,69.41,69.63Z"/><ellipse class="cls-2" cx="90.05" cy="72.92" rx="16.56" ry="16.54"/><path class="cls-3" d="M81,83.06a1.09,1.09,0,0,0,.26,0l4.37-1.09a1.13,1.13,0,0,0,.51-.29L99.56,68.23a2.2,2.2,0,0,0,.64-1.55,2.17,2.17,0,0,0-.64-1.54l-1.73-1.73a2.23,2.23,0,0,0-3.09,0L81.31,76.83a1.13,1.13,0,0,0-.29.51L79.93,81.7A1.1,1.1,0,0,0,81,83.06ZM96.28,65,98,66.68l-1.73,1.73-1.73-1.73ZM83.07,78.16,93,68.23,94.74,70,84.8,79.89l-2.31.58Z"/></g></g></svg>